#define bullet_width 9
#define bullet_height 9
static unsigned char bullet_bits[] = {
   0x00, 0x00, 0x06, 0x00, 0x1a, 0x00, 0x62, 0x00, 0x82, 0x00, 0x62, 0x00,
   0x1a, 0x00, 0x06, 0x00, 0x00, 0x00 };
