#define close_disabled_width 13
#define close_disabled_height 12
static unsigned char close_disabled_bits[] = {
   0x00, 0x00, 0x04, 0x04, 0x0c, 0x06, 0x18, 0x03, 0x10, 0x01, 0x00, 0x00,
   0x00, 0x00, 0x10, 0x01, 0x18, 0x03, 0x0c, 0x06, 0x04, 0x04, 0x00, 0x00 };
