#define close_width 13
#define close_height 12
static unsigned char close_bits[] = {
   0x00, 0x00, 0x04, 0x04, 0x0c, 0x06, 0x18, 0x03, 0xb0, 0x01, 0xe0, 0x00,
   0xe0, 0x00, 0xb0, 0x01, 0x18, 0x03, 0x0c, 0x06, 0x04, 0x04, 0x00, 0x00 };
