#define max_width 13
#define max_height 12
static unsigned char max_bits[] = {
   0x00, 0x00, 0xfc, 0x07, 0xfc, 0x07, 0xfc, 0x07, 0x04, 0x04, 0x04, 0x04,
   0x04, 0x04, 0x04, 0x04, 0x04, 0x04, 0x04, 0x04, 0xfc, 0x07, 0x00, 0x00 };
